<svg xmlns="http://www.w3.org/2000/svg" xmlns:xlink="http://www.w3.org/1999/xlink" width="512" height="512"
	 preserveAspectRatio="xMidYMid meet" viewBox="0 0 512 512"
	 style="-ms-transform: rotate(360deg); -webkit-transform: rotate(360deg); transform: rotate(360deg);">
	<path d="M416 221.25V416a48 48 0 0 1-48 48H144a48 48 0 0 1-48-48V96a48 48 0 0 1 48-48h98.75a32 32 0 0 1 22.62 9.37l141.26 141.26a32 32 0 0 1 9.37 22.62z"
		  fill="none" stroke="#bfc4c6" stroke-linejoin="round" stroke-width="32"/>
	<path d="M256 56v120a32 32 0 0 0 32 32h120" fill="none" stroke="#bfc4c6" stroke-linecap="round"
		  stroke-linejoin="round" stroke-width="32"/>
	<path fill="none" stroke="#bfc4c6" stroke-linecap="round" stroke-linejoin="round" stroke-width="32"
		  d="M176 288h160"/>
	<path fill="none" stroke="#bfc4c6" stroke-linecap="round" stroke-linejoin="round" stroke-width="32"
		  d="M176 368h160"/>
	<rect x="0" y="0" width="512" height="512" fill="rgba(0, 0, 0, 0)"/>
</svg>
