<svg xmlns="http://www.w3.org/2000/svg" xmlns:xlink="http://www.w3.org/1999/xlink" width="24" height="24" preserveAspectRatio="xMidYMid meet" viewBox="0 0 24 24" style="-ms-transform: rotate(360deg); -webkit-transform: rotate(360deg); transform: rotate(360deg);"><g fill="none" stroke="#626262" stroke-width="2" stroke-linecap="round" stroke-linejoin="round"><circle cx="12" cy="12" r="3"/><path d="M19.4 15a1.65 1.65 0 0 0 .33 1.82l.06.06a2 2 0 0 1 0 2.83a2 2 0 0 1-2.83 0l-.06-.06a1.65 1.65 0 0 0-1.82-.33a1.65 1.65 0 0 0-1 1.51V21a2 2 0 0 1-2 2a2 2 0 0 1-2-2v-.09A1.65 1.65 0 0 0 9 19.4a1.65 1.65 0 0 0-1.82.33l-.06.06a2 2 0 0 1-2.83 0a2 2 0 0 1 0-2.83l.06-.06a1.65 1.65 0 0 0 .33-1.82a1.65 1.65 0 0 0-1.51-1H3a2 2 0 0 1-2-2a2 2 0 0 1 2-2h.09A1.65 1.65 0 0 0 4.6 9a1.65 1.65 0 0 0-.33-1.82l-.06-.06a2 2 0 0 1 0-2.83a2 2 0 0 1 2.83 0l.06.06a1.65 1.65 0 0 0 1.82.33H9a1.65 1.65 0 0 0 1-1.51V3a2 2 0 0 1 2-2a2 2 0 0 1 2 2v.09a1.65 1.65 0 0 0 1 1.51a1.65 1.65 0 0 0 1.82-.33l.06-.06a2 2 0 0 1 2.83 0a2 2 0 0 1 0 2.83l-.06.06a1.65 1.65 0 0 0-.33 1.82V9a1.65 1.65 0 0 0 1.51 1H21a2 2 0 0 1 2 2a2 2 0 0 1-2 2h-.09a1.65 1.65 0 0 0-1.51 1z"/></g><rect x="0" y="0" width="24" height="24" fill="rgba(0, 0, 0, 0)" /></svg>